<mxfile host="app.diagrams.net" modified="2024-07-23T20:02:54.936Z" agent="Mozilla/5.0 (Macintosh; Intel Mac OS X 10_15_7) AppleWebKit/605.1.15 (KHTML, like Gecko) Version/17.5 Safari/605.1.15" etag="DBKKbt_cRyMy4H4rwFyd" version="24.7.1" type="github">
  <diagram name="Page-1" id="9ygGjFs7THfNtbKUS_C_">
    <mxGraphModel dx="752" dy="1249" grid="0" gridSize="10" guides="1" tooltips="1" connect="1" arrows="1" fold="1" page="1" pageScale="1" pageWidth="827" pageHeight="1169" background="#CCE5FF" math="0" shadow="0">
      <root>
        <mxCell id="0" />
        <mxCell id="1" parent="0" />
        <mxCell id="uXG8p27VCTIeqWCHf7-8-26" style="edgeStyle=none;curved=1;rounded=0;sketch=1;hachureGap=4;jiggle=2;curveFitting=1;orthogonalLoop=1;jettySize=auto;html=1;entryX=0;entryY=1;entryDx=0;entryDy=0;fontFamily=Architects Daughter;fontSource=https%3A%2F%2Ffonts.googleapis.com%2Fcss%3Ffamily%3DArchitects%2BDaughter;fontSize=12;startSize=8;endSize=8;" edge="1" parent="1" source="uXG8p27VCTIeqWCHf7-8-5" target="uXG8p27VCTIeqWCHf7-8-9">
          <mxGeometry relative="1" as="geometry">
            <Array as="points">
              <mxPoint x="217" y="604" />
            </Array>
          </mxGeometry>
        </mxCell>
        <mxCell id="uXG8p27VCTIeqWCHf7-8-5" value="" style="shape=cylinder3;whiteSpace=wrap;html=1;boundedLbl=1;backgroundOutline=1;size=15;sketch=1;hachureGap=4;jiggle=2;curveFitting=1;fontFamily=Architects Daughter;fontSource=https%3A%2F%2Ffonts.googleapis.com%2Fcss%3Ffamily%3DArchitects%2BDaughter;" vertex="1" parent="1">
          <mxGeometry x="95" y="643" width="60" height="80" as="geometry" />
        </mxCell>
        <mxCell id="uXG8p27VCTIeqWCHf7-8-6" value="" style="shape=cylinder3;whiteSpace=wrap;html=1;boundedLbl=1;backgroundOutline=1;size=15;sketch=1;hachureGap=4;jiggle=2;curveFitting=1;fontFamily=Architects Daughter;fontSource=https%3A%2F%2Ffonts.googleapis.com%2Fcss%3Ffamily%3DArchitects%2BDaughter;" vertex="1" parent="1">
          <mxGeometry x="295" y="688" width="60" height="80" as="geometry" />
        </mxCell>
        <mxCell id="uXG8p27VCTIeqWCHf7-8-7" value="" style="ellipse;shape=cloud;whiteSpace=wrap;html=1;sketch=1;hachureGap=4;jiggle=2;curveFitting=1;fontFamily=Architects Daughter;fontSource=https%3A%2F%2Ffonts.googleapis.com%2Fcss%3Ffamily%3DArchitects%2BDaughter;" vertex="1" parent="1">
          <mxGeometry x="469" y="622" width="120" height="80" as="geometry" />
        </mxCell>
        <mxCell id="uXG8p27VCTIeqWCHf7-8-25" style="edgeStyle=none;curved=1;rounded=0;sketch=1;hachureGap=4;jiggle=2;curveFitting=1;orthogonalLoop=1;jettySize=auto;html=1;entryX=1;entryY=0.75;entryDx=0;entryDy=0;fontFamily=Architects Daughter;fontSource=https%3A%2F%2Ffonts.googleapis.com%2Fcss%3Ffamily%3DArchitects%2BDaughter;fontSize=12;startSize=8;endSize=8;" edge="1" parent="1" source="uXG8p27VCTIeqWCHf7-8-8" target="uXG8p27VCTIeqWCHf7-8-9">
          <mxGeometry relative="1" as="geometry">
            <Array as="points">
              <mxPoint x="405" y="552" />
            </Array>
          </mxGeometry>
        </mxCell>
        <mxCell id="uXG8p27VCTIeqWCHf7-8-8" value="" style="rounded=1;whiteSpace=wrap;html=1;sketch=1;hachureGap=4;jiggle=2;curveFitting=1;fontFamily=Architects Daughter;fontSource=https%3A%2F%2Ffonts.googleapis.com%2Fcss%3Ffamily%3DArchitects%2BDaughter;" vertex="1" parent="1">
          <mxGeometry x="512" y="515" width="120" height="60" as="geometry" />
        </mxCell>
        <mxCell id="uXG8p27VCTIeqWCHf7-8-14" style="edgeStyle=none;curved=1;rounded=0;sketch=1;hachureGap=4;jiggle=2;curveFitting=1;orthogonalLoop=1;jettySize=auto;html=1;fontFamily=Architects Daughter;fontSource=https%3A%2F%2Ffonts.googleapis.com%2Fcss%3Ffamily%3DArchitects%2BDaughter;fontSize=12;startSize=8;endSize=8;entryX=0;entryY=0.5;entryDx=0;entryDy=0;" edge="1" parent="1" source="uXG8p27VCTIeqWCHf7-8-9" target="uXG8p27VCTIeqWCHf7-8-8">
          <mxGeometry relative="1" as="geometry">
            <mxPoint x="530" y="489.66666666666697" as="targetPoint" />
            <Array as="points">
              <mxPoint x="470" y="496" />
            </Array>
          </mxGeometry>
        </mxCell>
        <mxCell id="uXG8p27VCTIeqWCHf7-8-9" value="" style="rounded=1;whiteSpace=wrap;html=1;sketch=1;hachureGap=4;jiggle=2;curveFitting=1;fontFamily=Architects Daughter;fontSource=https%3A%2F%2Ffonts.googleapis.com%2Fcss%3Ffamily%3DArchitects%2BDaughter;" vertex="1" parent="1">
          <mxGeometry x="237" y="447" width="120" height="68" as="geometry" />
        </mxCell>
        <mxCell id="uXG8p27VCTIeqWCHf7-8-20" style="edgeStyle=none;curved=1;rounded=0;sketch=1;hachureGap=4;jiggle=2;curveFitting=1;orthogonalLoop=1;jettySize=auto;html=1;entryX=0.5;entryY=0;entryDx=0;entryDy=0;fontFamily=Architects Daughter;fontSource=https%3A%2F%2Ffonts.googleapis.com%2Fcss%3Ffamily%3DArchitects%2BDaughter;fontSize=12;startSize=8;endSize=8;" edge="1" parent="1" source="uXG8p27VCTIeqWCHf7-8-10" target="uXG8p27VCTIeqWCHf7-8-9">
          <mxGeometry relative="1" as="geometry">
            <Array as="points">
              <mxPoint x="288" y="334" />
            </Array>
          </mxGeometry>
        </mxCell>
        <mxCell id="uXG8p27VCTIeqWCHf7-8-10" value="" style="rounded=1;whiteSpace=wrap;html=1;sketch=1;hachureGap=4;jiggle=2;curveFitting=1;fontFamily=Architects Daughter;fontSource=https%3A%2F%2Ffonts.googleapis.com%2Fcss%3Ffamily%3DArchitects%2BDaughter;" vertex="1" parent="1">
          <mxGeometry x="44" y="248" width="120" height="60" as="geometry" />
        </mxCell>
        <mxCell id="uXG8p27VCTIeqWCHf7-8-11" style="edgeStyle=none;curved=1;rounded=0;sketch=1;hachureGap=4;jiggle=2;curveFitting=1;orthogonalLoop=1;jettySize=auto;html=1;entryX=0.5;entryY=0;entryDx=0;entryDy=0;entryPerimeter=0;fontFamily=Architects Daughter;fontSource=https%3A%2F%2Ffonts.googleapis.com%2Fcss%3Ffamily%3DArchitects%2BDaughter;fontSize=12;startSize=8;endSize=8;" edge="1" parent="1" source="uXG8p27VCTIeqWCHf7-8-9" target="uXG8p27VCTIeqWCHf7-8-5">
          <mxGeometry relative="1" as="geometry">
            <Array as="points">
              <mxPoint x="162" y="535" />
            </Array>
          </mxGeometry>
        </mxCell>
        <mxCell id="uXG8p27VCTIeqWCHf7-8-12" style="edgeStyle=none;curved=1;rounded=0;sketch=1;hachureGap=4;jiggle=2;curveFitting=1;orthogonalLoop=1;jettySize=auto;html=1;fontFamily=Architects Daughter;fontSource=https%3A%2F%2Ffonts.googleapis.com%2Fcss%3Ffamily%3DArchitects%2BDaughter;fontSize=12;startSize=8;endSize=8;" edge="1" parent="1" source="uXG8p27VCTIeqWCHf7-8-9">
          <mxGeometry relative="1" as="geometry">
            <mxPoint x="321" y="690" as="targetPoint" />
            <Array as="points">
              <mxPoint x="267" y="601" />
            </Array>
          </mxGeometry>
        </mxCell>
        <mxCell id="uXG8p27VCTIeqWCHf7-8-13" style="edgeStyle=none;curved=1;rounded=0;sketch=1;hachureGap=4;jiggle=2;curveFitting=1;orthogonalLoop=1;jettySize=auto;html=1;entryX=0.07;entryY=0.4;entryDx=0;entryDy=0;entryPerimeter=0;fontFamily=Architects Daughter;fontSource=https%3A%2F%2Ffonts.googleapis.com%2Fcss%3Ffamily%3DArchitects%2BDaughter;fontSize=12;startSize=8;endSize=8;" edge="1" parent="1" source="uXG8p27VCTIeqWCHf7-8-9" target="uXG8p27VCTIeqWCHf7-8-7">
          <mxGeometry relative="1" as="geometry">
            <Array as="points">
              <mxPoint x="382" y="620" />
            </Array>
          </mxGeometry>
        </mxCell>
        <mxCell id="uXG8p27VCTIeqWCHf7-8-15" value="Softphone" style="text;html=1;align=center;verticalAlign=middle;whiteSpace=wrap;rounded=0;fontSize=16;fontFamily=Architects Daughter;fontSource=https%3A%2F%2Ffonts.googleapis.com%2Fcss%3Ffamily%3DArchitects%2BDaughter;" vertex="1" parent="1">
          <mxGeometry x="250.5" y="463" width="89" height="31.5" as="geometry" />
        </mxCell>
        <mxCell id="uXG8p27VCTIeqWCHf7-8-16" value="Asterisk" style="text;html=1;align=center;verticalAlign=middle;whiteSpace=wrap;rounded=0;fontSize=16;fontFamily=Architects Daughter;fontSource=https%3A%2F%2Ffonts.googleapis.com%2Fcss%3Ffamily%3DArchitects%2BDaughter;" vertex="1" parent="1">
          <mxGeometry x="548" y="530" width="60" height="30" as="geometry" />
        </mxCell>
        <mxCell id="uXG8p27VCTIeqWCHf7-8-17" value="Redis" style="text;html=1;align=center;verticalAlign=middle;whiteSpace=wrap;rounded=0;fontSize=16;fontFamily=Architects Daughter;fontSource=https%3A%2F%2Ffonts.googleapis.com%2Fcss%3Ffamily%3DArchitects%2BDaughter;" vertex="1" parent="1">
          <mxGeometry x="95" y="682" width="60" height="27" as="geometry" />
        </mxCell>
        <mxCell id="uXG8p27VCTIeqWCHf7-8-18" value="Mysql" style="text;html=1;align=center;verticalAlign=middle;whiteSpace=wrap;rounded=0;fontSize=16;fontFamily=Architects Daughter;fontSource=https%3A%2F%2Ffonts.googleapis.com%2Fcss%3Ffamily%3DArchitects%2BDaughter;" vertex="1" parent="1">
          <mxGeometry x="293" y="723" width="60" height="30" as="geometry" />
        </mxCell>
        <mxCell id="uXG8p27VCTIeqWCHf7-8-19" value="SendGrid" style="text;html=1;align=center;verticalAlign=middle;whiteSpace=wrap;rounded=0;fontSize=16;fontFamily=Architects Daughter;fontSource=https%3A%2F%2Ffonts.googleapis.com%2Fcss%3Ffamily%3DArchitects%2BDaughter;" vertex="1" parent="1">
          <mxGeometry x="499" y="647" width="60" height="30" as="geometry" />
        </mxCell>
        <mxCell id="uXG8p27VCTIeqWCHf7-8-24" style="edgeStyle=none;curved=1;rounded=0;sketch=1;hachureGap=4;jiggle=2;curveFitting=1;orthogonalLoop=1;jettySize=auto;html=1;entryX=0;entryY=0.5;entryDx=0;entryDy=0;fontFamily=Architects Daughter;fontSource=https%3A%2F%2Ffonts.googleapis.com%2Fcss%3Ffamily%3DArchitects%2BDaughter;fontSize=12;startSize=8;endSize=8;" edge="1" parent="1" target="uXG8p27VCTIeqWCHf7-8-23">
          <mxGeometry relative="1" as="geometry">
            <mxPoint x="103" y="248" as="sourcePoint" />
            <Array as="points">
              <mxPoint x="136" y="114" />
            </Array>
          </mxGeometry>
        </mxCell>
        <mxCell id="uXG8p27VCTIeqWCHf7-8-21" value="Softphone-ui" style="text;html=1;align=center;verticalAlign=middle;whiteSpace=wrap;rounded=0;fontSize=16;fontFamily=Architects Daughter;fontSource=https%3A%2F%2Ffonts.googleapis.com%2Fcss%3Ffamily%3DArchitects%2BDaughter;" vertex="1" parent="1">
          <mxGeometry x="44" y="260" width="124" height="30" as="geometry" />
        </mxCell>
        <mxCell id="uXG8p27VCTIeqWCHf7-8-22" value="" style="rounded=1;whiteSpace=wrap;html=1;sketch=1;hachureGap=4;jiggle=2;curveFitting=1;fontFamily=Architects Daughter;fontSource=https%3A%2F%2Ffonts.googleapis.com%2Fcss%3Ffamily%3DArchitects%2BDaughter;" vertex="1" parent="1">
          <mxGeometry x="328" y="112" width="120" height="60" as="geometry" />
        </mxCell>
        <mxCell id="uXG8p27VCTIeqWCHf7-8-23" value="Service-Now" style="text;html=1;align=center;verticalAlign=middle;whiteSpace=wrap;rounded=0;fontSize=16;fontFamily=Architects Daughter;fontSource=https%3A%2F%2Ffonts.googleapis.com%2Fcss%3Ffamily%3DArchitects%2BDaughter;" vertex="1" parent="1">
          <mxGeometry x="325" y="121" width="132" height="42" as="geometry" />
        </mxCell>
      </root>
    </mxGraphModel>
  </diagram>
</mxfile>
